<svg width="1200" height="750" viewBox="0 0 1200 750" fill="none" xmlns="http://www.w3.org/2000/svg">
  <defs>
    <linearGradient id="bg" x1="0" y1="0" x2="1200" y2="750" gradientUnits="userSpaceOnUse">
      <stop stop-color="#101827"/>
      <stop offset="0.55" stop-color="#1D2030"/>
      <stop offset="1" stop-color="#3B211E"/>
    </linearGradient>
    <linearGradient id="glass" x1="190" y1="90" x2="1018" y2="650" gradientUnits="userSpaceOnUse">
      <stop stop-color="white" stop-opacity="0.22"/>
      <stop offset="1" stop-color="white" stop-opacity="0.06"/>
    </linearGradient>
    <filter id="soft" x="-80" y="-80" width="1360" height="910" filterUnits="userSpaceOnUse" color-interpolation-filters="sRGB">
      <feGaussianBlur stdDeviation="38"/>
    </filter>
  </defs>
  <rect width="1200" height="750" rx="38" fill="url(#bg)"/>
  <g opacity="0.2">
    <path d="M0 160H1200M0 300H1200M0 440H1200M0 580H1200" stroke="white"/>
    <path d="M150 0V750M300 0V750M450 0V750M600 0V750M750 0V750M900 0V750M1050 0V750" stroke="white"/>
  </g>
  <g filter="url(#soft)" opacity="0.72">
    <circle cx="306" cy="212" r="122" fill="#FF6B4A"/>
    <circle cx="864" cy="246" r="132" fill="#25CCB0"/>
  </g>
  <rect x="145" y="116" width="910" height="496" rx="36" fill="url(#glass)" stroke="white" stroke-opacity="0.18"/>
  <rect x="214" y="174" width="320" height="206" rx="24" fill="#08111F" stroke="#FF9D78" stroke-opacity="0.42"/>
  <rect x="666" y="174" width="320" height="206" rx="24" fill="#08111F" stroke="#25CCB0" stroke-opacity="0.32"/>
  <path d="M258 322L326 254L382 294L478 220" stroke="#FF7A59" stroke-width="9" stroke-linecap="round" stroke-linejoin="round"/>
  <path d="M710 316C760 250 814 342 858 270C894 210 928 256 948 226" stroke="#25CCB0" stroke-width="9" stroke-linecap="round"/>
  <g>
    <circle cx="314" cy="505" r="42" fill="#FF7A59"/>
    <circle cx="600" cy="505" r="42" fill="#25CCB0"/>
    <circle cx="886" cy="505" r="42" fill="#FF9D78"/>
    <path d="M314 548C246 548 210 586 198 634H430C418 586 382 548 314 548Z" fill="white" fill-opacity="0.12"/>
    <path d="M600 548C532 548 496 586 484 634H716C704 586 668 548 600 548Z" fill="white" fill-opacity="0.12"/>
    <path d="M886 548C818 548 782 586 770 634H1002C990 586 954 548 886 548Z" fill="white" fill-opacity="0.12"/>
  </g>
  <path d="M356 507H558" stroke="white" stroke-opacity="0.24" stroke-width="5" stroke-linecap="round"/>
  <path d="M642 507H844" stroke="white" stroke-opacity="0.24" stroke-width="5" stroke-linecap="round"/>
  <circle cx="456" cy="507" r="9" fill="#FF7A59"/>
  <circle cx="742" cy="507" r="9" fill="#25CCB0"/>
  <rect x="474" y="414" width="252" height="74" rx="18" fill="white" fill-opacity="0.1" stroke="white" stroke-opacity="0.12"/>
  <path d="M520 452H680" stroke="white" stroke-opacity="0.64" stroke-width="8" stroke-linecap="round"/>
</svg>
